<svg width="155" height="17" viewBox="0 0 155 17" fill="none" xmlns="http://www.w3.org/2000/svg">
<path d="M138.691 16.9102H132.305V0L138.691 0V6.17578L139.957 6.17578L146.742 0L154.617 0L144.562 8.82422L144.586 7.44141L154.922 16.9102H146.684L139.957 10.6289H138.691V16.9102Z" fill="url(#paint0_linear_676_4338)"/>
<path d="M111.164 16.9102V0L129.691 0V4.21875L117.551 4.21875V6.51562L128.801 6.51563V10.2305L117.551 10.2305V12.6914L129.691 12.6914V16.9102H111.164Z" fill="url(#paint1_linear_676_4338)"/>
<path d="M102.086 16.9102V10.5234H102.004C101.457 10.7891 100.859 11.0117 100.211 11.1914C99.5703 11.3711 98.8945 11.5078 98.1836 11.6016C97.4727 11.6875 96.7461 11.7305 96.0039 11.7305C94.043 11.7305 92.3945 11.4258 91.0586 10.8164C89.7305 10.1992 88.7266 9.29297 88.0469 8.09766C87.375 6.90234 87.0391 5.42969 87.0391 3.67969V0L93.4258 0V2.91797C93.4258 3.82422 93.5781 4.57812 93.8828 5.17969C94.1953 5.77344 94.6836 6.21875 95.3477 6.51563C96.0117 6.80469 96.8711 6.94922 97.9258 6.94922C98.5039 6.94922 99.0508 6.89844 99.5664 6.79688C100.09 6.6875 100.566 6.53125 100.996 6.32813C101.426 6.125 101.789 5.87891 102.086 5.58984V0L108.473 0V16.9102H102.086Z" fill="url(#paint2_linear_676_4338)"/>
<path d="M48.5625 16.9102V0L54.9492 0V12.3281H60.0469V0L66.4336 0V12.3281H71.5312V0L77.9062 0V16.9102L48.5625 16.9102Z" fill="url(#paint3_linear_676_4338)"/>
<path d="M21.6484 16.9102L29.9688 0L36.3438 0V4.45313H34.1641L28.3867 16.9102H21.6484ZM26.4531 13.7109L28.2344 9.84375L39.8828 9.84375L41.6523 13.7109L26.4531 13.7109ZM40.0352 16.9102L34.2578 4.45313V0L38.4414 0L46.7734 16.9102H40.0352Z" fill="url(#paint4_linear_676_4338)"/>
<path d="M3.22266 16.9102V12.8672H12.9258C13.5117 12.8672 13.9609 12.75 14.2734 12.5156C14.5938 12.2813 14.7539 11.9375 14.7539 11.4844V11.4727C14.7539 11.1602 14.6797 10.9023 14.5312 10.6992C14.3828 10.4961 14.168 10.3438 13.8867 10.2422C13.6055 10.1406 13.2617 10.0898 12.8555 10.0898H3.22266V6.67969L12.2461 6.67969C12.832 6.67969 13.2812 6.56641 13.5938 6.33984C13.9141 6.11328 14.0742 5.78906 14.0742 5.36719V5.34375C14.0742 4.92188 13.9297 4.60156 13.6406 4.38281C13.3516 4.15625 12.9375 4.04297 12.3984 4.04297L3.22266 4.04297L3.22266 0L14.2852 0C15.5898 0 16.6953 0.160156 17.6016 0.480469C18.5156 0.800781 19.207 1.26563 19.6758 1.875C20.1523 2.48438 20.3906 3.22266 20.3906 4.08984V4.11328C20.3906 4.81641 20.2422 5.42578 19.9453 5.94141C19.6562 6.45703 19.2305 6.88281 18.668 7.21875C18.1133 7.54688 17.4414 7.78125 16.6523 7.92188V8.00391C17.6445 8.12891 18.4766 8.375 19.1484 8.74219C19.8281 9.10156 20.3398 9.57031 20.6836 10.1484C21.0352 10.7266 21.2109 11.3984 21.2109 12.1641V12.1875C21.2109 13.2031 20.9414 14.0625 20.4023 14.7656C19.8711 15.4688 19.0977 16.0039 18.082 16.3711C17.0742 16.7305 15.8516 16.9102 14.4141 16.9102H3.22266ZM0 16.9102L0 0L6.26953 0L6.26953 16.9102H0Z" fill="url(#paint5_linear_676_4338)"/>
<defs>
<linearGradient id="paint0_linear_676_4338" x1="-1.33594" y1="8.4713" x2="203.664" y2="8.47129" gradientUnits="userSpaceOnUse">
<stop stop-color="#16335F"/>
<stop offset="0.5" stop-color="#16335F"/>
<stop offset="1" stop-color="#4E73A5"/>
</linearGradient>
<linearGradient id="paint1_linear_676_4338" x1="-1.33594" y1="8.4713" x2="203.664" y2="8.47129" gradientUnits="userSpaceOnUse">
<stop stop-color="#16335F"/>
<stop offset="0.5" stop-color="#16335F"/>
<stop offset="1" stop-color="#4E73A5"/>
</linearGradient>
<linearGradient id="paint2_linear_676_4338" x1="-1.33203" y1="8.4713" x2="203.668" y2="8.47129" gradientUnits="userSpaceOnUse">
<stop stop-color="#16335F"/>
<stop offset="0.5" stop-color="#16335F"/>
<stop offset="1" stop-color="#4E73A5"/>
</linearGradient>
<linearGradient id="paint3_linear_676_4338" x1="-1.33594" y1="8.4713" x2="203.664" y2="8.47129" gradientUnits="userSpaceOnUse">
<stop stop-color="#16335F"/>
<stop offset="0.5" stop-color="#16335F"/>
<stop offset="1" stop-color="#4E73A5"/>
</linearGradient>
<linearGradient id="paint4_linear_676_4338" x1="-1.33203" y1="8.4713" x2="203.668" y2="8.47129" gradientUnits="userSpaceOnUse">
<stop stop-color="#16335F"/>
<stop offset="0.5" stop-color="#16335F"/>
<stop offset="1" stop-color="#4E73A5"/>
</linearGradient>
<linearGradient id="paint5_linear_676_4338" x1="-1.33594" y1="8.4713" x2="203.664" y2="8.47129" gradientUnits="userSpaceOnUse">
<stop stop-color="#16335F"/>
<stop offset="0.5" stop-color="#16335F"/>
<stop offset="1" stop-color="#4E73A5"/>
</linearGradient>
</defs>
</svg>
