<svg width="1097" height="626" viewBox="0 0 1097 626" fill="none" xmlns="http://www.w3.org/2000/svg">
<g clip-path="url(#clip0_710_4514)">
<rect width="1097" height="626" fill="white"/>
<g filter="url(#filter0_dii_710_4514)">
<path d="M-1 26.998C-1 26.998 507.557 128.914 695 171.499C952.5 230 1095 408.498 1095 408.498V593.499C1095 593.499 559.529 498.004 509 487.499C122.484 407.142 -1 214.35 -1 214.35V26.998Z" fill="white"/>
</g>
<g filter="url(#filter1_i_710_4514)">
<path d="M-1 417.018L179.182 625.526H-1V417.018Z" fill="#CD0812"/>
</g>
<g filter="url(#filter2_i_710_4514)">
<path d="M1095 209.484L914.818 0.975585H1095V209.484Z" fill="#CD0812"/>
</g>
<g filter="url(#filter3_ii_710_4514)">
<path d="M302.594 309.938C296.094 309.938 290.469 308.979 285.719 307.062C280.99 305.125 277.333 302.406 274.75 298.906C272.188 295.385 270.906 291.229 270.906 286.438V286.375C270.906 281.583 272.188 277.438 274.75 273.938C277.333 270.417 280.99 267.698 285.719 265.781C290.469 263.865 296.094 262.906 302.594 262.906C308.26 262.906 313.333 263.719 317.812 265.344C322.312 266.948 325.958 269.26 328.75 272.281C331.562 275.281 333.271 278.885 333.875 283.094L333.938 283.531H316.969L316.906 283.25C316.344 281.479 315.406 280 314.094 278.812C312.802 277.625 311.198 276.74 309.281 276.156C307.365 275.552 305.208 275.25 302.812 275.25C299.771 275.25 297.156 275.708 294.969 276.625C292.802 277.521 291.135 278.802 289.969 280.469C288.823 282.135 288.25 284.104 288.25 286.375V286.438C288.25 288.708 288.823 290.677 289.969 292.344C291.135 294.01 292.802 295.302 294.969 296.219C297.156 297.135 299.771 297.594 302.812 297.594C305.188 297.594 307.333 297.292 309.25 296.688C311.167 296.083 312.781 295.188 314.094 294C315.406 292.792 316.344 291.302 316.906 289.531L316.969 289.219H333.938L333.875 289.656C333.25 293.885 331.542 297.51 328.75 300.531C325.958 303.552 322.312 305.875 317.812 307.5C313.333 309.125 308.26 309.938 302.594 309.938ZM353.312 317.906H337.812V296.625H342.5C343.708 296.083 344.76 295.167 345.656 293.875C346.552 292.583 347.292 290.875 347.875 288.75C348.479 286.604 348.938 284.01 349.25 280.969L351 263.906H400.875V296.625H409.031V317.906H393.531V309H353.312V317.906ZM365.594 282.531C365.26 285.177 364.885 287.365 364.469 289.094C364.073 290.823 363.594 292.26 363.031 293.406C362.469 294.531 361.771 295.521 360.938 296.375V296.625H383.812V276.125H366.375L365.594 282.531ZM414.5 309V263.906H463.906V275.156H431.531V281.281H461.531V291.188H431.531V297.75H463.906V309H414.5ZM474.219 309.531C472.865 309.531 471.656 309.458 470.594 309.312C469.531 309.188 468.812 309.083 468.438 309V295.344C468.854 295.448 469.344 295.542 469.906 295.625C470.469 295.688 471.042 295.719 471.625 295.719C473.208 295.719 474.542 295.458 475.625 294.938C476.729 294.396 477.594 293.479 478.219 292.188C478.844 290.875 479.229 289.062 479.375 286.75L480.938 263.906H532.094V309H515.062V276.094H496.062L494.812 291.5C494.458 295.833 493.531 299.323 492.031 301.969C490.552 304.615 488.365 306.542 485.469 307.75C482.573 308.938 478.823 309.531 474.219 309.531ZM537.906 309L560.094 263.906H577.094V275.781H571.281L555.875 309H537.906ZM550.719 300.469L555.469 290.156H586.531L591.25 300.469H550.719ZM586.938 309L571.531 275.781V263.906H582.688L604.906 309H586.938ZM610.562 309V263.906H627.594V280.125H654.812V263.906H671.812V309H654.812V292.344H627.594V309H610.562ZM711.375 309.969C704.771 309.969 699.021 309.01 694.125 307.094C689.229 305.177 685.438 302.458 682.75 298.938C680.062 295.417 678.719 291.26 678.719 286.469V286.406C678.719 281.615 680.062 277.458 682.75 273.938C685.438 270.417 689.229 267.698 694.125 265.781C699.021 263.865 704.771 262.906 711.375 262.906C717.979 262.906 723.719 263.865 728.594 265.781C733.49 267.698 737.281 270.417 739.969 273.938C742.677 277.458 744.031 281.615 744.031 286.406V286.469C744.031 291.26 742.677 295.417 739.969 298.938C737.281 302.458 733.49 305.177 728.594 307.094C723.719 309.01 717.979 309.969 711.375 309.969ZM711.375 297.625C714.5 297.625 717.208 297.177 719.5 296.281C721.792 295.385 723.562 294.104 724.812 292.438C726.062 290.75 726.688 288.76 726.688 286.469V286.406C726.688 284.115 726.062 282.135 724.812 280.469C723.562 278.802 721.792 277.521 719.5 276.625C717.208 275.708 714.5 275.25 711.375 275.25C708.229 275.25 705.51 275.708 703.219 276.625C700.927 277.521 699.156 278.802 697.906 280.469C696.677 282.135 696.062 284.115 696.062 286.406V286.469C696.062 288.76 696.677 290.75 697.906 292.438C699.156 294.104 700.927 295.385 703.219 296.281C705.51 297.177 708.229 297.625 711.375 297.625ZM777.844 309V298.219H803.719C805.281 298.219 806.479 297.906 807.312 297.281C808.167 296.656 808.594 295.74 808.594 294.531V294.5C808.594 293.667 808.396 292.979 808 292.438C807.604 291.896 807.031 291.49 806.281 291.219C805.531 290.948 804.615 290.813 803.531 290.813H777.844V281.719H801.906C803.469 281.719 804.667 281.417 805.5 280.813C806.354 280.208 806.781 279.344 806.781 278.219V278.156C806.781 277.031 806.396 276.177 805.625 275.594C804.854 274.99 803.75 274.688 802.312 274.688H777.844V263.906H807.344C810.823 263.906 813.771 264.333 816.188 265.188C818.625 266.042 820.469 267.281 821.719 268.906C822.99 270.531 823.625 272.5 823.625 274.813V274.875C823.625 276.75 823.229 278.375 822.438 279.75C821.667 281.125 820.531 282.26 819.031 283.156C817.552 284.031 815.76 284.656 813.656 285.031V285.25C816.302 285.583 818.521 286.24 820.312 287.219C822.125 288.177 823.49 289.427 824.406 290.969C825.344 292.51 825.812 294.302 825.812 296.344V296.406C825.812 299.115 825.094 301.406 823.656 303.281C822.24 305.156 820.177 306.583 817.469 307.563C814.781 308.521 811.521 309 807.688 309H777.844ZM769.25 309V263.906H785.969V309H769.25Z" fill="url(#paint0_linear_710_4514)"/>
<path d="M313.82 357H303.176V328.816H313.82V339.109H315.93L327.238 328.816H340.363L323.605 343.523L323.645 341.219L340.871 357H327.141L315.93 346.531H313.82V357ZM342.672 357L356.539 328.816H367.164V336.238H363.531L353.902 357H342.672ZM350.68 351.668L353.648 345.223H373.062L376.012 351.668H350.68ZM373.316 357L363.688 336.238V328.816H370.66L384.547 357H373.316ZM390.273 357.332C389.427 357.332 388.672 357.286 388.008 357.195C387.344 357.117 386.895 357.052 386.66 357V348.465C386.921 348.53 387.227 348.589 387.578 348.641C387.93 348.68 388.288 348.699 388.652 348.699C389.642 348.699 390.475 348.536 391.152 348.211C391.842 347.872 392.383 347.299 392.773 346.492C393.164 345.672 393.405 344.539 393.496 343.094L394.473 328.816H426.445V357H415.801V336.434H403.926L403.145 346.062C402.923 348.771 402.344 350.952 401.406 352.605C400.482 354.259 399.115 355.464 397.305 356.219C395.495 356.961 393.151 357.332 390.273 357.332ZM432.074 357V328.816H442.23V344.344H446.605L437.055 349.031L459.438 328.816H468.52V357H458.363V341.258H453.988L463.52 336.531L441.176 357H432.074ZM474.051 357V328.816H484.695V338.953H501.707V328.816H512.332V357H501.707V346.59H484.695V357H474.051ZM517.863 357V328.816H528.02V344.344H532.395L522.844 349.031L545.227 328.816H554.309V357H544.152V341.258H539.777L549.309 336.531L526.965 357H517.863ZM559.84 357V328.816H570.484V338.953H587.496V328.816H598.121V357H587.496V346.59H570.484V357H559.84ZM614.297 357H603.652V328.816H633.242V336.453H614.297V357ZM642.973 349.695V342.664H657.172C658.5 342.664 659.503 342.384 660.18 341.824C660.857 341.264 661.195 340.457 661.195 339.402V339.363C661.195 338.309 660.85 337.501 660.16 336.941C659.483 336.382 658.487 336.102 657.172 336.102H642.973V328.816H658.695C661.482 328.816 663.858 329.259 665.824 330.145C667.803 331.017 669.314 332.234 670.355 333.797C671.41 335.346 671.938 337.15 671.938 339.207V339.246C671.938 341.225 671.41 343.003 670.355 344.578C669.314 346.154 667.803 347.404 665.824 348.328C663.858 349.24 661.482 349.695 658.695 349.695H642.973ZM637.66 357V328.816H648.266V357H637.66ZM670.906 357L684.773 328.816H695.398V336.238H691.766L682.137 357H670.906ZM678.914 351.668L681.883 345.223H701.297L704.246 351.668H678.914ZM701.551 357L691.922 336.238V328.816H698.895L712.781 357L701.551 357ZM724.582 362.566H714.895V349.266H717.824C718.579 348.927 719.237 348.354 719.797 347.547C720.357 346.74 720.819 345.672 721.184 344.344C721.561 343.003 721.848 341.382 722.043 339.48L723.137 328.816H754.309V349.266H759.406V362.566H749.719V357H724.582V362.566ZM732.258 340.457C732.049 342.111 731.815 343.478 731.555 344.559C731.307 345.639 731.008 346.538 730.656 347.254C730.305 347.957 729.868 348.576 729.348 349.109V349.266H743.645V336.453H732.746L732.258 340.457ZM763.199 357V328.816H794.078V335.848H773.844V339.676H792.594V345.867H773.844V349.969H794.078V357H763.199Z" fill="url(#paint1_linear_710_4514)"/>
</g>
<g filter="url(#filter4_di_710_4514)">
<path d="M1095 417.018C1095 417.018 999.745 277.076 811.5 208.509C572.569 121.48 -2 30.9985 -2 30.9985V9.15527e-05H915.884L1095 208.509V417.018Z" fill="#0195E8"/>
</g>
<g filter="url(#filter5_di_710_4514)">
<path d="M-2 208C-2 208 93.2547 347.942 281.5 416.509C520.431 503.538 1095 594.019 1095 594.019V625.017H177.116L-2 416.509V208Z" fill="#0195E8"/>
</g>
</g>
<defs>
<filter id="filter0_dii_710_4514" x="-5" y="14.898" width="1113.1" height="582.702" filterUnits="userSpaceOnUse" color-interpolation-filters="sRGB">
<feFlood flood-opacity="0" result="BackgroundImageFix"/>
<feColorMatrix in="SourceAlpha" type="matrix" values="0 0 0 0 0 0 0 0 0 0 0 0 0 0 0 0 0 0 127 0" result="hardAlpha"/>
<feOffset dx="5" dy="-4"/>
<feGaussianBlur stdDeviation="4.05"/>
<feComposite in2="hardAlpha" operator="out"/>
<feColorMatrix type="matrix" values="0 0 0 0 0 0 0 0 0 0 0 0 0 0 0 0 0 0 0.25 0"/>
<feBlend mode="normal" in2="BackgroundImageFix" result="effect1_dropShadow_710_4514"/>
<feBlend mode="normal" in="SourceGraphic" in2="effect1_dropShadow_710_4514" result="shape"/>
<feColorMatrix in="SourceAlpha" type="matrix" values="0 0 0 0 0 0 0 0 0 0 0 0 0 0 0 0 0 0 127 0" result="hardAlpha"/>
<feOffset dx="8" dy="-9"/>
<feGaussianBlur stdDeviation="2"/>
<feComposite in2="hardAlpha" operator="arithmetic" k2="-1" k3="1"/>
<feColorMatrix type="matrix" values="0 0 0 0 0 0 0 0 0 0 0 0 0 0 0 0 0 0 0.25 0"/>
<feBlend mode="normal" in2="shape" result="effect2_innerShadow_710_4514"/>
<feColorMatrix in="SourceAlpha" type="matrix" values="0 0 0 0 0 0 0 0 0 0 0 0 0 0 0 0 0 0 127 0" result="hardAlpha"/>
<feOffset dx="-10" dy="8"/>
<feGaussianBlur stdDeviation="2"/>
<feComposite in2="hardAlpha" operator="arithmetic" k2="-1" k3="1"/>
<feColorMatrix type="matrix" values="0 0 0 0 0 0 0 0 0 0 0 0 0 0 0 0 0 0 0.25 0"/>
<feBlend mode="normal" in2="effect2_innerShadow_710_4514" result="effect3_innerShadow_710_4514"/>
</filter>
<filter id="filter1_i_710_4514" x="-1" y="417.018" width="184.18" height="212.51" filterUnits="userSpaceOnUse" color-interpolation-filters="sRGB">
<feFlood flood-opacity="0" result="BackgroundImageFix"/>
<feBlend mode="normal" in="SourceGraphic" in2="BackgroundImageFix" result="shape"/>
<feColorMatrix in="SourceAlpha" type="matrix" values="0 0 0 0 0 0 0 0 0 0 0 0 0 0 0 0 0 0 127 0" result="hardAlpha"/>
<feOffset dx="11" dy="23"/>
<feGaussianBlur stdDeviation="2"/>
<feComposite in2="hardAlpha" operator="arithmetic" k2="-1" k3="1"/>
<feColorMatrix type="matrix" values="0 0 0 0 0 0 0 0 0 0 0 0 0 0 0 0 0 0 0.25 0"/>
<feBlend mode="normal" in2="shape" result="effect1_innerShadow_710_4514"/>
</filter>
<filter id="filter2_i_710_4514" x="910.82" y="-3.02539" width="184.18" height="212.51" filterUnits="userSpaceOnUse" color-interpolation-filters="sRGB">
<feFlood flood-opacity="0" result="BackgroundImageFix"/>
<feBlend mode="normal" in="SourceGraphic" in2="BackgroundImageFix" result="shape"/>
<feColorMatrix in="SourceAlpha" type="matrix" values="0 0 0 0 0 0 0 0 0 0 0 0 0 0 0 0 0 0 127 0" result="hardAlpha"/>
<feOffset dx="-10" dy="-27"/>
<feGaussianBlur stdDeviation="2"/>
<feComposite in2="hardAlpha" operator="arithmetic" k2="-1" k3="1"/>
<feColorMatrix type="matrix" values="0 0 0 0 0 0 0 0 0 0 0 0 0 0 0 0 0 0 0.25 0"/>
<feBlend mode="normal" in2="shape" result="effect1_innerShadow_710_4514"/>
</filter>
<filter id="filter3_ii_710_4514" x="270.906" y="258.906" width="554.906" height="107.66" filterUnits="userSpaceOnUse" color-interpolation-filters="sRGB">
<feFlood flood-opacity="0" result="BackgroundImageFix"/>
<feBlend mode="normal" in="SourceGraphic" in2="BackgroundImageFix" result="shape"/>
<feColorMatrix in="SourceAlpha" type="matrix" values="0 0 0 0 0 0 0 0 0 0 0 0 0 0 0 0 0 0 127 0" result="hardAlpha"/>
<feOffset dy="4"/>
<feGaussianBlur stdDeviation="2"/>
<feComposite in2="hardAlpha" operator="arithmetic" k2="-1" k3="1"/>
<feColorMatrix type="matrix" values="0 0 0 0 0 0 0 0 0 0 0 0 0 0 0 0 0 0 0.25 0"/>
<feBlend mode="normal" in2="shape" result="effect1_innerShadow_710_4514"/>
<feColorMatrix in="SourceAlpha" type="matrix" values="0 0 0 0 0 0 0 0 0 0 0 0 0 0 0 0 0 0 127 0" result="hardAlpha"/>
<feOffset dy="-4"/>
<feGaussianBlur stdDeviation="2"/>
<feComposite in2="hardAlpha" operator="arithmetic" k2="-1" k3="1"/>
<feColorMatrix type="matrix" values="0 0 0 0 0 0 0 0 0 0 0 0 0 0 0 0 0 0 0.25 0"/>
<feBlend mode="normal" in2="effect1_innerShadow_710_4514" result="effect2_innerShadow_710_4514"/>
</filter>
<filter id="filter4_di_710_4514" x="-5.1" y="-12.1" width="1113.2" height="433.218" filterUnits="userSpaceOnUse" color-interpolation-filters="sRGB">
<feFlood flood-opacity="0" result="BackgroundImageFix"/>
<feColorMatrix in="SourceAlpha" type="matrix" values="0 0 0 0 0 0 0 0 0 0 0 0 0 0 0 0 0 0 127 0" result="hardAlpha"/>
<feOffset dx="5" dy="-4"/>
<feGaussianBlur stdDeviation="4.05"/>
<feComposite in2="hardAlpha" operator="out"/>
<feColorMatrix type="matrix" values="0 0 0 0 0 0 0 0 0 0 0 0 0 0 0 0 0 0 0.25 0"/>
<feBlend mode="normal" in2="BackgroundImageFix" result="effect1_dropShadow_710_4514"/>
<feBlend mode="normal" in="SourceGraphic" in2="effect1_dropShadow_710_4514" result="shape"/>
<feColorMatrix in="SourceAlpha" type="matrix" values="0 0 0 0 0 0 0 0 0 0 0 0 0 0 0 0 0 0 127 0" result="hardAlpha"/>
<feOffset dx="8" dy="-9"/>
<feGaussianBlur stdDeviation="2"/>
<feComposite in2="hardAlpha" operator="arithmetic" k2="-1" k3="1"/>
<feColorMatrix type="matrix" values="0 0 0 0 0 0 0 0 0 0 0 0 0 0 0 0 0 0 0.25 0"/>
<feBlend mode="normal" in2="shape" result="effect2_innerShadow_710_4514"/>
</filter>
<filter id="filter5_di_710_4514" x="-5.1" y="195.9" width="1113.2" height="433.218" filterUnits="userSpaceOnUse" color-interpolation-filters="sRGB">
<feFlood flood-opacity="0" result="BackgroundImageFix"/>
<feColorMatrix in="SourceAlpha" type="matrix" values="0 0 0 0 0 0 0 0 0 0 0 0 0 0 0 0 0 0 127 0" result="hardAlpha"/>
<feOffset dx="5" dy="-4"/>
<feGaussianBlur stdDeviation="4.05"/>
<feComposite in2="hardAlpha" operator="out"/>
<feColorMatrix type="matrix" values="0 0 0 0 0 0 0 0 0 0 0 0 0 0 0 0 0 0 0.25 0"/>
<feBlend mode="normal" in2="BackgroundImageFix" result="effect1_dropShadow_710_4514"/>
<feBlend mode="normal" in="SourceGraphic" in2="effect1_dropShadow_710_4514" result="shape"/>
<feColorMatrix in="SourceAlpha" type="matrix" values="0 0 0 0 0 0 0 0 0 0 0 0 0 0 0 0 0 0 127 0" result="hardAlpha"/>
<feOffset dx="8" dy="-9"/>
<feGaussianBlur stdDeviation="2"/>
<feComposite in2="hardAlpha" operator="arithmetic" k2="-1" k3="1"/>
<feColorMatrix type="matrix" values="0 0 0 0 0 0 0 0 0 0 0 0 0 0 0 0 0 0 0.25 0"/>
<feBlend mode="normal" in2="shape" result="effect2_innerShadow_710_4514"/>
</filter>
<linearGradient id="paint0_linear_710_4514" x1="131" y1="310.835" x2="966" y2="310.835" gradientUnits="userSpaceOnUse">
<stop stop-color="#0195E8"/>
<stop offset="0.649038" stop-color="#0195E8"/>
<stop offset="1" stop-color="#0195E8"/>
</linearGradient>
<linearGradient id="paint1_linear_710_4514" x1="131" y1="310.835" x2="966" y2="310.835" gradientUnits="userSpaceOnUse">
<stop/>
<stop offset="0.5" stop-color="#7B7B7B"/>
<stop offset="1" stop-color="#9E9E9E"/>
</linearGradient>
<clipPath id="clip0_710_4514">
<rect width="1097" height="626" fill="white"/>
</clipPath>
</defs>
</svg>
