<svg width="80" height="65" viewBox="0 0 80 65" fill="none" xmlns="http://www.w3.org/2000/svg">
<g clip-path="url(#clip0_678_4306)">
<path fill-rule="evenodd" clip-rule="evenodd" d="M7.1547 54.3457L10.6544 52.3957V33.1783L3.41506 29.1511L0.0141118 31.2565L7.1547 35.2413V54.3457ZM23.4398 52.6076V56.55L80 27.9217L76.1616 25.9293L23.4398 52.6076ZM12.8982 37.6293V47.888L16.5108 49.9087L20.1094 47.9022L16.398 45.825V35.6935L12.8982 37.6293ZM23.6514 45.9098V35.6511L20.0388 33.6304L16.4403 35.637L20.1517 37.7141V47.8457L23.6514 45.9098ZM38.8922 24.4315V34.6902L42.5049 36.7109L46.1034 34.7043L42.392 32.6272V22.4957L38.8922 24.4315ZM49.6878 36.6261L49.6313 22.4674L46.0187 20.4609L42.4202 22.4674L46.1316 24.5446V34.6761L49.6878 36.6261ZM60.6245 9.91957L60.6386 27.0739L64.2512 29.0804L67.8497 27.0739L64.1383 24.9967V15.2185L67.765 13.1978L64.1383 11.1772L64.1524 7.9413L60.6245 9.91957ZM29.4514 43.225L25.9517 41.275V27.1163L29.4514 29.0663V43.225ZM72.6336 24.6859L69.148 22.7359V3.68804L72.6336 1.75217V24.6859ZM79.9859 24.488L79.9294 10.3293L76.3168 8.3087L72.7183 10.3152L76.4297 12.3924V22.5239L79.9859 24.488ZM55.4877 33.3196L51.988 31.3696V17.3098L58.7194 13.9043L58.7335 17.8326L55.4736 19.4859V33.3196H55.4877ZM36.7754 43.2815L36.719 29.1087L33.1064 27.088L29.5079 29.0946L33.2193 31.1717V41.3033L36.7754 43.2815ZM21.7181 57.4261L21.6899 51.6326L20.321 50.9402L18.9804 51.6185L20.3493 52.3109V58.1185L21.7181 57.4261ZM17.668 58.0902L18.9945 58.7967L20.3352 58.1185L19.0369 57.3978L17.668 58.0902ZM17.6116 52.3109L17.6257 55.8576L18.924 56.5783L20.2928 55.8859L18.9663 55.1793V51.6185L17.6116 52.3109ZM16.9624 59.8283L16.9483 56.2957L15.5936 55.5891V60.5065L16.9624 59.8283ZM12.8418 53.3989L12.87 58.2739L14.1683 58.9946L15.523 58.3022L14.1965 57.5957V54.0913L12.8418 53.3989ZM12.1785 62.2446L12.1644 58.6837L9.46904 57.3272V56.4228L8.00141 57.1717L8.01552 57.963L10.8097 59.3761V62.937L12.1785 62.2446ZM8.11431 59.4185L8.12842 62.9087L9.42671 63.6293L10.7956 62.937L9.46904 62.2304V58.7261L8.11431 59.4185ZM12.2209 57.3413V56.3663L10.9085 55.7022L9.55371 56.3804L10.8802 57.0446V58.0337L12.2209 57.3413ZM6.73135 65L6.70312 57.8924L5.34839 57.1859L5.3625 64.3641L6.73135 65ZM30.2558 21.4924V10.7957C29.7478 10.9935 29.4514 11.2054 29.4232 11.4315V21.9022L30.2558 21.4924ZM33.0076 20.037V10.2022C32.2314 10.3011 31.54 10.4283 30.9896 10.5696V21.125L33.0076 20.037ZM30.6791 4.46522L33.5438 3.73043L33.9813 5.48261C34.0095 5.59565 34.0236 5.72283 34.0236 5.86413C34.0236 6.6837 33.3604 7.34783 32.5419 7.34783C31.8504 7.34783 31.2718 6.86739 31.1025 6.23152C30.9614 5.62391 30.8485 5.0587 30.6791 4.46522ZM43.4221 7.37609L41.9263 6.99457L42.2508 3.3913C42.4202 3.40543 42.5754 3.41957 42.7448 3.44783L42.5331 5.92065L42.7871 5.96304L43.3798 3.56087C43.5209 3.60326 43.6761 3.64565 43.8173 3.68804L43.2104 6.09022L43.4362 6.175L44.4664 3.94239C44.5934 3.99891 44.7063 4.06957 44.8333 4.14022L43.4221 7.37609ZM37.1282 2.14783H35.7876V1.37065H35.9428C36.1545 1.45543 36.5497 1.56848 37.0436 1.56848H37.1424V2.14783H37.1282ZM37.1282 3.53261H35.8158V2.75543H37.1282V3.53261ZM37.1282 5.00217H37.0295C36.4227 5.00217 35.9993 4.74783 35.8158 4.14022H37.1282V5.00217ZM37.1282 5.58152V9.91957C36.1545 9.9337 35.2231 9.97609 34.3623 10.0467L33.7414 7.54565C34.0801 7.30544 34.3482 6.98044 34.5176 6.57065C34.6728 6.18913 34.701 5.77935 34.6304 5.39783L34.0095 2.91087L29.8748 3.97065L30.4533 6.27391C30.6086 6.93804 31.0743 7.53152 31.7657 7.8C31.9915 7.88478 32.2314 7.9413 32.4572 7.9413L33.0217 10.2022C33.4592 10.1315 33.9107 10.0891 34.3623 10.0609V19.4152L41.2066 15.9533V10.0609C41.6723 10.0891 42.1379 10.1457 42.5895 10.2022V15.2609L46.1739 13.4522V11.3609C46.0046 10.8804 44.6216 10.4565 42.5895 10.2022L43.154 7.9413L43.7749 8.09674L45.6659 3.87174C44.4523 3.22174 43.154 2.86848 41.7428 2.82609L41.2771 7.46087L41.8275 7.60217L41.2066 10.0609C40.3599 9.99022 39.4567 9.94783 38.483 9.9337V5.59565H38.7229C39.626 5.59565 40.3881 4.91739 40.3881 3.95652V1.65326C40.3881 1.04565 40.7832 0.508696 41.2771 0H40.4445C40.0071 0.565217 39.5414 1.03152 38.4971 0.96087V0H37.1424V0.946739C36.1828 1.00326 35.6183 0.63587 35.2231 0H34.3764C34.9409 0.551087 35.2373 1.07391 35.2373 1.65326V4.05543C35.2373 4.76196 35.9428 5.59565 36.8742 5.59565H37.1282V5.58152ZM38.483 5.00217V4.14022H39.753C39.626 4.63478 39.3156 5.00217 38.6241 5.00217H38.483ZM38.483 3.53261V2.75543H39.753V3.53261H38.483ZM38.483 2.14783V1.58261H38.6241C39.0616 1.58261 39.5273 1.46957 39.626 1.38478H39.7248V2.14783H38.483ZM3.49974 63.0359L0 61.0859V35.2837L3.49974 33.3337V52.3533L7.12648 54.3739L3.49974 56.3946V63.0359Z" fill="#16335F"/>
</g>
<defs>
<clipPath id="clip0_678_4306">
<rect width="80" height="65" fill="white"/>
</clipPath>
</defs>
</svg>
