<svg width="116" height="18" viewBox="0 0 116 18" fill="none" xmlns="http://www.w3.org/2000/svg">
<path d="M102.816 17.6484C100.34 17.6484 98.1836 17.2891 96.3477 16.5703C94.5117 15.8516 93.0898 14.832 92.082 13.5117C91.0742 12.1914 90.5703 10.6328 90.5703 8.83594V8.8125C90.5703 7.01562 91.0742 5.45703 92.082 4.13672C93.0898 2.81641 94.5117 1.79688 96.3477 1.07813C98.1836 0.359375 100.34 0 102.816 0C105.293 0 107.445 0.359375 109.273 1.07813C111.109 1.79688 112.531 2.81641 113.539 4.13672C114.555 5.45703 115.062 7.01563 115.062 8.8125V8.83594C115.062 10.6328 114.555 12.1914 113.539 13.5117C112.531 14.832 111.109 15.8516 109.273 16.5703C107.445 17.2891 105.293 17.6484 102.816 17.6484ZM102.816 13.0195C103.988 13.0195 105.004 12.8516 105.863 12.5156C106.723 12.1797 107.387 11.6992 107.855 11.0742C108.324 10.4414 108.559 9.69531 108.559 8.83594V8.8125C108.559 7.95313 108.324 7.21094 107.855 6.58594C107.387 5.96094 106.723 5.48047 105.863 5.14453C105.004 4.80078 103.988 4.62891 102.816 4.62891C101.637 4.62891 100.617 4.80078 99.7578 5.14453C98.8984 5.48047 98.2344 5.96094 97.7656 6.58594C97.3047 7.21094 97.0742 7.95312 97.0742 8.8125V8.83594C97.0742 9.69531 97.3047 10.4414 97.7656 11.0742C98.2344 11.6992 98.8984 12.1797 99.7578 12.5156C100.617 12.8516 101.637 13.0195 102.816 13.0195Z" fill="url(#paint0_linear_685_4354)"/>
<path d="M78.3398 17.2852H71.9531V0.375L89.707 0.375V4.95703L78.3398 4.95703V17.2852Z" fill="url(#paint1_linear_685_4354)"/>
<path d="M57.4414 17.6484C54.9648 17.6484 52.8086 17.2891 50.9727 16.5703C49.1367 15.8516 47.7148 14.832 46.707 13.5117C45.6992 12.1914 45.1953 10.6328 45.1953 8.83594V8.8125C45.1953 7.01562 45.6992 5.45703 46.707 4.13672C47.7148 2.81641 49.1367 1.79688 50.9727 1.07813C52.8086 0.359375 54.9648 0 57.4414 0C59.918 0 62.0703 0.359375 63.8984 1.07813C65.7344 1.79688 67.1562 2.81641 68.1641 4.13672C69.1797 5.45703 69.6875 7.01563 69.6875 8.8125V8.83594C69.6875 10.6328 69.1797 12.1914 68.1641 13.5117C67.1562 14.832 65.7344 15.8516 63.8984 16.5703C62.0703 17.2891 59.918 17.6484 57.4414 17.6484ZM57.4414 13.0195C58.6133 13.0195 59.6289 12.8516 60.4883 12.5156C61.3477 12.1797 62.0117 11.6992 62.4805 11.0742C62.9492 10.4414 63.1836 9.69531 63.1836 8.83594V8.8125C63.1836 7.95313 62.9492 7.21094 62.4805 6.58594C62.0117 5.96094 61.3477 5.48047 60.4883 5.14453C59.6289 4.80078 58.6133 4.62891 57.4414 4.62891C56.2617 4.62891 55.2422 4.80078 54.3828 5.14453C53.5234 5.48047 52.8594 5.96094 52.3906 6.58594C51.9297 7.21094 51.6992 7.95312 51.6992 8.8125V8.83594C51.6992 9.69531 51.9297 10.4414 52.3906 11.0742C52.8594 11.6992 53.5234 12.1797 54.3828 12.5156C55.2422 12.8516 56.2617 13.0195 57.4414 13.0195Z" fill="url(#paint2_linear_685_4354)"/>
<path d="M31.1016 17.2852V4.95703H23.8594V0.375L44.7188 0.375V4.95703H37.4883V17.2852H31.1016Z" fill="url(#paint3_linear_685_4354)"/>
<path d="M0 17.2852L0 0.375L6.09375 0.375L6.09375 9.69141H8.71875L2.98828 12.5039L16.418 0.375L21.8672 0.375V17.2852H15.7734L15.7734 7.83984H13.1484L18.8672 5.00391L5.46094 17.2852H0Z" fill="url(#paint4_linear_685_4354)"/>
<defs>
<linearGradient id="paint0_linear_685_4354" x1="-1.38671" y1="8.84633" x2="125.613" y2="8.84632" gradientUnits="userSpaceOnUse">
<stop stop-color="#16335F"/>
<stop offset="0.5" stop-color="#16335F"/>
<stop offset="1" stop-color="#4E73A5"/>
</linearGradient>
<linearGradient id="paint1_linear_685_4354" x1="-1.38281" y1="8.8463" x2="125.617" y2="8.8463" gradientUnits="userSpaceOnUse">
<stop stop-color="#16335F"/>
<stop offset="0.5" stop-color="#16335F"/>
<stop offset="1" stop-color="#4E73A5"/>
</linearGradient>
<linearGradient id="paint2_linear_685_4354" x1="-1.38672" y1="8.84632" x2="125.613" y2="8.84632" gradientUnits="userSpaceOnUse">
<stop stop-color="#16335F"/>
<stop offset="0.5" stop-color="#16335F"/>
<stop offset="1" stop-color="#4E73A5"/>
</linearGradient>
<linearGradient id="paint3_linear_685_4354" x1="-1.38281" y1="8.8463" x2="125.617" y2="8.84629" gradientUnits="userSpaceOnUse">
<stop stop-color="#16335F"/>
<stop offset="0.5" stop-color="#16335F"/>
<stop offset="1" stop-color="#4E73A5"/>
</linearGradient>
<linearGradient id="paint4_linear_685_4354" x1="-1.38281" y1="8.8463" x2="125.617" y2="8.84629" gradientUnits="userSpaceOnUse">
<stop stop-color="#16335F"/>
<stop offset="0.5" stop-color="#16335F"/>
<stop offset="1" stop-color="#4E73A5"/>
</linearGradient>
</defs>
</svg>
